<?xml version="1.0" encoding="UTF-8"?>
<svg id="Design" xmlns="http://www.w3.org/2000/svg" version="1.1" viewBox="0 0 358 154">
  <!-- Generator: Adobe Illustrator 29.6.0, SVG Export Plug-In . SVG Version: 2.1.1 Build 207)  -->
  <defs>
    <style>
      .st0 {
        fill: #fce600;
      }

      .st1 {
        fill: #fff;
      }

      .st2 {
        fill: #2a348f;
      }

      .st3 {
        fill: #f36b21;
      }
    </style>
  </defs>
  <path class="st3" d="M333.46,153.96H.4L24.25,18.7C26.07,8.4,35.9.04,46.21.04h295.73c10.31,0,17.19,8.35,15.37,18.66l-23.85,135.25Z"/>
  <g>
    <polygon class="st1" points="50.42 91 61.93 25.74 46.88 25.74 32.96 104.68 72.18 104.68 74.59 91 50.42 91"/>
    <path class="st1" d="M328.32,50.25h-14.49l-1.13,6.43c-1.76-2.75-6.38-7.66-16.92-7.66-5.83,0-12.34,2.14-17.41,5.74-6.93,4.91-11.49,12.56-13.17,22.1-1.49,8.44.1,16.2,4.37,21.28,3.75,4.47,9.46,6.84,16.51,6.84,11.98,0,18.61-5.51,20.51-7.38.95,2.39,3.94,6.37,13.28,6.37h3.26l2.35-13.35h-4.39l7.23-40.38ZM306.48,77.12c-1.45,10.14-7.13,15.95-15.57,15.95h-.7c-3.63,0-6.42-1.09-8.28-3.24-2.36-2.72-3.18-7.16-2.36-12.82,1.47-10.22,7.11-16.08,15.49-16.08h.7c3.65,0,6.46,1.1,8.34,3.27,2.38,2.75,3.21,7.21,2.39,12.92Z"/>
    <path class="st1" d="M140.24,50.25h-14.49l-1.13,6.43c-1.76-2.75-6.39-7.66-16.92-7.66-5.83,0-12.34,2.14-17.41,5.74-6.93,4.91-11.49,12.56-13.17,22.1-1.49,8.44.1,16.2,4.37,21.28,3.75,4.47,9.46,6.84,16.51,6.84,11.98,0,18.61-5.51,20.51-7.38.95,2.39,3.94,6.37,13.28,6.37h3.26l2.35-13.35h-4.39l7.23-40.38ZM91.49,77.01c1.47-10.22,7.11-16.08,15.49-16.08h.7c3.65,0,6.46,1.1,8.34,3.27,2.38,2.75,3.21,7.21,2.39,12.92-1.45,10.14-7.13,15.95-15.57,15.95h-.7c-3.63,0-6.42-1.09-8.28-3.24-2.36-2.72-3.18-7.16-2.36-12.82Z"/>
    <polygon class="st1" points="148.67 25.74 146.18 39.87 162.77 39.87 151.34 104.68 166.71 104.68 178.14 39.87 194.84 39.87 197.33 25.74 148.67 25.74"/>
    <g>
      <path class="st1" d="M237.79,108.96c-1.05,5.97-6.76,10.83-12.73,10.83h-8.38l-2.73,15.46h8.56c14.41,0,28.2-11.72,30.74-26.12l11.55-65.52h-15.48l-11.52,65.35Z"/>
      <path class="st1" d="M267.4,21.43c-1.45-1.73-3.6-2.68-6.06-2.68-5.04,0-9.86,4.1-10.75,9.13-.44,2.5.13,4.85,1.61,6.62,1.45,1.73,3.6,2.68,6.06,2.68,5.04,0,9.86-4.1,10.75-9.13.44-2.5-.13-4.85-1.61-6.62Z"/>
    </g>
    <path class="st1" d="M236.86,62.98c0-5.23-1.96-9.26-5.81-11.98-3.71-2.62-8.69-3.94-14.79-3.94-5.13,0-9.99.94-14.43,2.79-4.42,1.85-8.31,4.34-11.56,7.41-3.25,3.08-5.83,6.7-7.66,10.76-1.84,4.07-2.77,8.42-2.77,12.92,0,3.32.54,6.46,1.6,9.33,1.07,2.9,2.66,5.45,4.73,7.57,2.07,2.11,4.6,3.8,7.53,5.01,2.93,1.21,6.32,1.82,10.09,1.82,2.84,0,5.68-.35,8.45-1.05,2.75-.7,5.39-1.67,7.85-2.89,2.46-1.22,4.75-2.71,6.81-4.43,2.07-1.73,3.85-3.68,5.28-5.8l1.01-1.49-12.08-3.51-.53.8c-1.53,2.3-3.65,4.15-6.32,5.49-2.69,1.35-5.52,2.04-8.4,2.04-1.97,0-3.69-.32-5.1-.95-1.39-.62-2.53-1.5-3.41-2.61-.9-1.15-1.59-2.5-2.05-4.03-.34-1.14-.56-2.41-.65-3.76,3.17.39,10.16,1.01,17.5.16,9.71-1.13,16.74-4.38,20.92-9.65,1.84-1.97,3.03-4.32,3.51-6.96l.27-.93-.13.05c.09-.71.14-1.44.14-2.18ZM219.43,68.64c-1.51.72-3.52,1.3-5.99,1.72-2.51.43-5.68.64-9.42.64-2.26,0-4.73-.07-7.33-.2.58-1.35,1.27-2.67,2.05-3.93,1.08-1.74,2.41-3.29,3.96-4.62,1.54-1.32,3.34-2.38,5.37-3.17,2-.78,4.25-1.18,6.67-1.18,2.77,0,4.94.48,6.46,1.42,1.35.85,1.98,2.1,1.98,3.96,0,1.12-.27,2.1-.83,3.02-.55.89-1.53,1.68-2.92,2.35Z"/>
  </g>
  <g>
    <g>
      <path class="st1" d="M281.89,142.86c-1.95,0-3.65-.31-5.1-.93-1.45-.62-2.66-1.47-3.64-2.55-.97-1.08-1.7-2.33-2.18-3.74-.48-1.42-.72-2.92-.72-4.51,0-2.16.43-4.27,1.3-6.35.87-2.07,2.08-3.91,3.64-5.52,1.56-1.61,3.43-2.9,5.6-3.88,2.18-.97,4.58-1.46,7.2-1.46,3.11,0,5.58.68,7.38,2.04,1.81,1.36,3.01,3.14,3.61,5.34l-8.76,2.5c-.67-1.77-1.95-2.66-3.82-2.66-.92,0-1.82.23-2.71.69-.88.46-1.67,1.09-2.36,1.89-.69.8-1.24,1.74-1.65,2.84-.41,1.1-.61,2.3-.61,3.61,0,1.66.39,3,1.17,4.01.78,1.01,1.81,1.51,3.08,1.51.92,0,1.83-.26,2.74-.77.9-.51,1.64-1.18,2.2-1.99l7.75,2.55c-1.49,2.16-3.43,3.93-5.84,5.31-2.41,1.38-5.17,2.07-8.28,2.07Z"/>
      <path class="st1" d="M304.19,114.44h7.81l-1.22,5.63c1.35-1.88,2.84-3.35,4.49-4.41,1.65-1.06,3.27-1.59,4.86-1.59.67,0,1.08.02,1.22.05l-1.59,7.59c-1.91.04-3.71.37-5.39,1.01-1.68.64-3.04,1.59-4.06,2.87l-3.56,16.73h-8.5l5.95-27.88Z"/>
    </g>
    <path class="st1" d="M264.18,133.99c-.77-.92-1.92-1.43-3.23-1.43-2.69,0-5.26,2.18-5.73,4.87-.24,1.33.07,2.59.86,3.53.77.92,1.92,1.43,3.23,1.43,2.69,0,5.26-2.18,5.73-4.87.24-1.33-.07-2.59-.86-3.53Z"/>
  </g>
  <polygon class="st2" points="6.36 119.86 2.37 142.49 199.48 142.49 203.47 119.86 6.36 119.86"/>
  <g>
    <path class="st0" d="M14.89,135.17l2.75-12.93h-2.26l-2.79,13.2c-.03.12-.05.24-.07.34-.02.12-.03.23-.03.33,0,.6.19,1.07.57,1.41.36.33.86.5,1.46.5.3,0,.65-.04,1.04-.11.4-.07.75-.17,1.05-.29l.26-.1.07-2.03-.6.21c-.17.06-.35.11-.53.14-.78.16-.97,0-.97-.41,0-.05,0-.09,0-.13,0-.05.01-.1.02-.15Z"/>
    <path class="st0" d="M27.86,135.76l1.98-9.28h-2.25l-.31,1.4c-.21-.28-.45-.55-.73-.78-.63-.53-1.43-.8-2.39-.8-.84,0-1.65.2-2.41.6-.75.39-1.41.91-1.99,1.56-.57.64-1.03,1.38-1.37,2.21-.34.83-.52,1.71-.52,2.6,0,.64.09,1.25.27,1.82.18.58.46,1.1.81,1.55.36.45.81.82,1.31,1.08.52.27,1.12.4,1.78.4.81,0,1.64-.22,2.46-.66.39-.21.76-.46,1.1-.74v.02c0,.35.13.65.37.87.23.21.54.33.99.37.08,0,.19,0,.3-.03l.6-.08.33-1.51.06-.52h-.42s0-.04.02-.06ZM24.6,135.34c-.33.22-.67.39-1.03.51-.77.27-1.41.22-1.93-.05-.3-.16-.56-.37-.78-.63-.22-.26-.39-.57-.51-.93-.12-.37-.18-.77-.18-1.19,0-.55.11-1.11.33-1.67.23-.56.53-1.08.91-1.52.38-.45.82-.81,1.32-1.09.48-.27.99-.4,1.52-.4.29,0,.57.06.84.18.28.12.53.29.75.49.22.2.41.45.56.72.14.25.23.52.27.8l-.64,3.13c-.11.31-.3.61-.55.88-.27.29-.57.55-.89.76Z"/>
    <path class="st0" d="M33.89,128.67c.22-.16.48-.28.78-.36.79-.21,1.68-.16,2.41.14.42.17.74.42.98.76l.29.41,1.48-1.41-.22-.3c-.35-.49-.85-.89-1.49-1.18-1.1-.51-2.68-.57-4.02-.17-.59.18-1.13.44-1.58.79-.46.35-.83.79-1.11,1.3-.28.52-.43,1.11-.43,1.77,0,.38.08.72.23,1.01.15.28.38.53.67.73.26.18.6.35.99.49.37.13.8.27,1.3.41.41.11.77.21,1.09.32.3.1.54.21.73.32.16.09.28.2.35.3.06.09.09.22.09.37,0,.55-.22.97-.68,1.3-.5.36-1.15.54-1.95.54-1.17,0-2.14-.43-2.97-1.32l-.33-.35-1.37,1.57.24.28c.48.57,1.1,1,1.85,1.3.74.29,1.53.43,2.37.43.72,0,1.39-.1,2.01-.29.62-.2,1.16-.48,1.62-.83.46-.36.82-.8,1.08-1.3.26-.51.39-1.06.39-1.66,0-.85-.37-1.52-1.07-1.94-.62-.37-1.47-.69-2.62-.97-.69-.18-1.21-.36-1.52-.52-.14-.07-.29-.2-.29-.54,0-.32.06-.59.18-.81.12-.23.29-.41.5-.57Z"/>
    <path class="st0" d="M52.67,134.46c-.1.2-.25.39-.44.56-.21.2-.46.37-.72.52-.27.15-.55.27-.85.36-.65.19-1.3.17-1.82-.09-.29-.15-.53-.35-.74-.61-.21-.27-.38-.59-.5-.96-.12-.37-.18-.77-.18-1.21,0-.63.12-1.24.35-1.8.24-.57.56-1.07.95-1.49.39-.42.85-.76,1.35-1,.97-.48,2.11-.49,2.84.02.35.25.59.59.73,1.04l.12.41,2.22-.67-.1-.4c-.21-.87-.67-1.57-1.37-2.08-.69-.51-1.57-.76-2.62-.76-.92,0-1.81.19-2.62.57-.81.37-1.53.89-2.14,1.52-.61.64-1.1,1.38-1.45,2.2-.36.83-.54,1.72-.54,2.62,0,.65.1,1.28.3,1.86.2.59.49,1.11.87,1.56.38.45.86.81,1.41,1.07.56.26,1.18.4,1.87.4.52,0,1.04-.07,1.55-.21.5-.14.99-.33,1.44-.59.45-.25.86-.55,1.22-.89.37-.35.67-.73.91-1.14l.26-.46-2.13-.68-.16.33Z"/>
    <path class="st0" d="M66.73,129.3c-.2-.59-.49-1.11-.87-1.55-.38-.44-.85-.8-1.38-1.06-.54-.26-1.17-.4-1.85-.4-.9,0-1.77.2-2.58.59-.8.38-1.52.9-2.13,1.54-.61.64-1.11,1.38-1.47,2.2-.37.83-.55,1.72-.55,2.63,0,.65.1,1.28.3,1.85.2.58.49,1.1.86,1.54.38.44.84.8,1.39,1.06.55.26,1.17.4,1.86.4.9,0,1.77-.2,2.59-.59.81-.39,1.53-.91,2.13-1.54.61-.64,1.1-1.38,1.46-2.2.37-.84.55-1.71.55-2.61,0-.65-.1-1.28-.3-1.86ZM59.6,135.82c-.29-.14-.54-.34-.75-.6-.22-.26-.38-.58-.5-.93-.12-.37-.18-.77-.18-1.2,0-.63.12-1.23.37-1.8.25-.57.58-1.09.99-1.52.4-.43.86-.78,1.36-1.03.49-.25.98-.37,1.48-.37.35,0,.67.07.95.22.29.15.54.35.76.61.22.26.38.58.5.94.12.38.18.78.18,1.21,0,.63-.12,1.23-.37,1.78-.25.57-.58,1.07-.98,1.5-.39.43-.85.77-1.36,1.02-.84.42-1.76.5-2.45.16Z"/>
    <path class="st0" d="M71.42,128.67c.22-.16.48-.28.78-.36.79-.21,1.68-.16,2.41.14.42.17.74.42.98.76l.29.41,1.48-1.41-.22-.3c-.35-.49-.85-.89-1.49-1.18-1.1-.51-2.68-.57-4.02-.17-.59.18-1.13.44-1.58.79-.46.35-.83.79-1.11,1.3-.28.52-.43,1.11-.43,1.77,0,.38.08.72.23,1.01.15.28.38.53.67.73.26.18.6.35.99.49.37.13.8.27,1.3.41.41.11.77.21,1.09.32.3.1.54.21.73.32.16.09.28.2.35.3.06.09.09.22.09.37,0,.55-.22.97-.68,1.3-.5.36-1.15.54-1.95.54-1.17,0-2.14-.43-2.97-1.32l-.33-.35-1.37,1.57.24.28c.48.57,1.1,1,1.85,1.3.74.29,1.53.43,2.37.43.72,0,1.39-.1,2.01-.29.62-.2,1.16-.48,1.62-.83.46-.36.82-.8,1.08-1.3.26-.51.39-1.06.39-1.66,0-.85-.37-1.52-1.07-1.94-.62-.37-1.47-.69-2.62-.97-.69-.18-1.21-.36-1.52-.52-.14-.07-.29-.2-.29-.54,0-.32.06-.59.18-.81.12-.23.29-.41.5-.57Z"/>
    <path class="st0" d="M87.42,135.76l1.98-9.28h-2.25l-.31,1.4c-.21-.28-.45-.55-.73-.78-.63-.53-1.43-.8-2.39-.8-.84,0-1.65.2-2.41.6-.75.39-1.41.91-1.99,1.56-.57.64-1.03,1.38-1.37,2.21-.34.83-.52,1.71-.52,2.6,0,.64.09,1.25.27,1.82.18.58.46,1.1.81,1.55.36.45.81.82,1.31,1.08.52.27,1.12.4,1.78.4.81,0,1.64-.22,2.46-.66.39-.21.76-.46,1.1-.74v.02c0,.35.13.65.37.87.23.21.54.33.99.37.08,0,.19,0,.3-.03l.6-.08.33-1.51.06-.52h-.42s0-.04.02-.06ZM84.15,135.34c-.33.22-.67.39-1.03.51-.77.27-1.41.22-1.93-.05-.3-.16-.56-.37-.78-.63-.22-.26-.39-.57-.51-.93-.12-.37-.18-.77-.18-1.19,0-.55.11-1.11.33-1.67.23-.56.53-1.08.91-1.52.38-.45.82-.81,1.32-1.09.48-.27.99-.4,1.52-.4.29,0,.57.06.84.18.28.12.53.29.75.49.22.2.41.45.56.72.14.25.23.52.27.8l-.64,3.13c-.11.31-.3.61-.55.88-.27.29-.57.55-.89.76Z"/>
    <path class="st0" d="M93.44,128.67c.22-.16.48-.28.78-.36.79-.21,1.68-.16,2.41.14.42.17.74.42.98.76l.29.41,1.48-1.41-.22-.3c-.35-.49-.85-.89-1.49-1.18-1.1-.51-2.68-.57-4.02-.17-.59.18-1.13.44-1.58.79-.46.35-.83.79-1.11,1.3-.28.52-.43,1.11-.43,1.77,0,.38.08.72.23,1.01.15.28.38.53.67.73.26.18.6.35.99.49.37.13.8.27,1.3.41.41.11.77.21,1.09.32.3.1.54.21.73.32.16.09.28.2.35.3.06.09.09.22.09.37,0,.55-.22.97-.68,1.3-.5.36-1.15.54-1.95.54-1.17,0-2.14-.43-2.97-1.32l-.33-.35-1.37,1.57.24.28c.48.57,1.1,1,1.85,1.3.74.29,1.53.43,2.37.43.72,0,1.39-.1,2.01-.29.62-.2,1.16-.48,1.62-.83.46-.36.82-.8,1.08-1.3.26-.51.39-1.06.39-1.66,0-.85-.37-1.52-1.07-1.94-.62-.37-1.47-.69-2.62-.97-.69-.18-1.21-.36-1.52-.52-.14-.07-.29-.2-.29-.54,0-.32.06-.59.18-.81.12-.23.29-.41.5-.57Z"/>
    <path class="st0" d="M112.22,134.46c-.1.2-.25.39-.44.56-.21.2-.46.37-.72.52-.27.15-.55.27-.85.36-.65.19-1.3.17-1.82-.09-.29-.15-.53-.35-.74-.61-.21-.27-.38-.59-.5-.96-.12-.37-.18-.77-.18-1.21,0-.63.12-1.24.35-1.8.24-.57.56-1.07.95-1.49.39-.42.85-.76,1.35-1,.97-.48,2.11-.49,2.84.02.35.25.59.59.73,1.04l.12.41,2.22-.67-.1-.4c-.21-.87-.67-1.57-1.37-2.08-.69-.51-1.57-.76-2.62-.76-.92,0-1.81.19-2.62.57-.81.37-1.53.89-2.14,1.52-.61.64-1.1,1.38-1.45,2.2-.36.83-.54,1.72-.54,2.62,0,.65.1,1.28.3,1.86.2.59.49,1.11.87,1.56.38.45.86.81,1.41,1.07.56.26,1.18.4,1.87.4.52,0,1.04-.07,1.55-.21.5-.14.99-.33,1.44-.59.45-.25.86-.55,1.22-.89.37-.35.67-.73.91-1.14l.26-.46-2.13-.68-.16.33Z"/>
    <path class="st0" d="M125.41,127.75c-.38-.44-.85-.8-1.38-1.06-.54-.26-1.17-.4-1.85-.4-.9,0-1.77.2-2.58.59-.8.38-1.52.9-2.13,1.54-.61.64-1.11,1.38-1.47,2.2-.37.83-.55,1.72-.55,2.63,0,.65.1,1.28.3,1.85.2.58.49,1.1.86,1.54.38.44.84.8,1.39,1.06.55.26,1.17.4,1.86.4.9,0,1.77-.2,2.59-.59.81-.39,1.53-.91,2.13-1.54.61-.64,1.1-1.38,1.46-2.2.37-.84.55-1.71.55-2.61,0-.65-.1-1.28-.3-1.86-.2-.59-.49-1.11-.87-1.55ZM119.15,135.82c-.29-.14-.54-.34-.75-.6-.22-.26-.38-.58-.5-.93-.12-.37-.18-.77-.18-1.2,0-.63.12-1.23.37-1.8.25-.57.58-1.09.99-1.52.4-.43.86-.78,1.36-1.03.49-.25.98-.37,1.48-.37.35,0,.67.07.95.22.29.15.54.35.76.61.22.26.38.58.5.94.12.38.18.78.18,1.21,0,.63-.12,1.23-.37,1.78-.25.57-.58,1.07-.98,1.5-.39.43-.85.77-1.36,1.02-.84.42-1.76.5-2.45.16Z"/>
    <path class="st0" d="M141.56,126.29c-.88,0-1.76.26-2.6.76-.55.33-1.06.77-1.53,1.31-.11-.47-.31-.87-.57-1.19-.48-.58-1.21-.87-2.15-.87-.87,0-1.73.25-2.56.75-.35.21-.69.46-1,.74l.29-1.31h-2.16l-2.41,11.42h2.26l1.42-6.76c.41-.82.94-1.49,1.58-1.99.63-.5,1.26-.74,1.92-.74.58,0,1.17.18,1.17,1.48,0,.21-.02.44-.06.7-.04.27-.09.57-.16.9l-1.35,6.42h2.26l1.42-6.74c.2-.4.43-.77.69-1.1.27-.34.56-.64.87-.89.3-.24.62-.43.96-.57.32-.13.64-.19.97-.19.58,0,1.17.18,1.17,1.52,0,.21-.02.45-.05.71-.03.26-.08.55-.15.85l-1.35,6.42h2.25l1.39-6.52c.17-.76.25-1.45.25-2.06,0-.9-.21-1.63-.63-2.17-.44-.57-1.17-.85-2.15-.85Z"/>
    <path class="st0" d="M155.24,127.75c-.38-.44-.85-.8-1.38-1.06-.54-.26-1.17-.4-1.85-.4-.9,0-1.77.2-2.58.59-.8.38-1.52.9-2.13,1.54-.61.64-1.11,1.38-1.47,2.2-.37.83-.55,1.72-.55,2.63,0,.65.1,1.28.3,1.85.2.58.49,1.1.86,1.54.38.44.84.8,1.39,1.06.55.26,1.17.4,1.86.4.9,0,1.77-.2,2.59-.59.81-.39,1.53-.91,2.13-1.54.61-.64,1.1-1.38,1.46-2.2.37-.84.55-1.71.55-2.61,0-.65-.1-1.28-.3-1.86-.2-.59-.49-1.11-.87-1.55ZM148.98,135.82c-.29-.14-.54-.34-.75-.6-.22-.26-.38-.58-.5-.93-.12-.37-.18-.77-.18-1.2,0-.63.12-1.23.37-1.8.25-.57.58-1.09.99-1.52.4-.43.86-.78,1.36-1.03.49-.25.98-.37,1.48-.37.35,0,.67.07.95.22.29.15.54.35.76.61.22.26.38.58.5.94.12.38.18.78.18,1.21,0,.63-.12,1.23-.37,1.78-.25.57-.58,1.07-.98,1.5-.39.43-.85.77-1.36,1.02-.84.42-1.76.5-2.45.16Z"/>
    <path class="st0" d="M166.05,128.67c.22-.16.48-.28.78-.36.79-.21,1.68-.16,2.41.14.42.17.74.42.98.76l.29.41,1.48-1.41-.22-.3c-.35-.49-.85-.89-1.49-1.18-1.1-.51-2.68-.57-4.02-.17-.59.18-1.13.44-1.58.79-.46.35-.83.79-1.11,1.3-.28.52-.43,1.11-.43,1.77,0,.38.08.72.23,1.01.15.28.38.53.67.73.26.18.6.35.99.49.37.13.8.27,1.3.41.41.11.77.21,1.09.32.3.1.54.21.73.32.16.09.28.2.35.3.06.09.09.22.09.37,0,.55-.22.97-.68,1.3-.5.36-1.15.54-1.95.54-1.17,0-2.14-.43-2.97-1.32l-.33-.35-1.37,1.57.24.28c.48.57,1.1,1,1.85,1.3.74.29,1.53.43,2.37.43.72,0,1.39-.1,2.01-.29.62-.2,1.16-.48,1.62-.83.46-.36.82-.8,1.08-1.3.26-.51.39-1.06.39-1.66,0-.85-.37-1.52-1.07-1.94-.62-.37-1.47-.69-2.62-.97-.69-.18-1.21-.36-1.52-.52-.14-.07-.29-.2-.29-.54,0-.32.06-.59.18-.81.12-.23.29-.41.5-.57Z"/>
    <path class="st0" d="M182,127.75c-.38-.44-.85-.8-1.38-1.06-.54-.26-1.17-.4-1.85-.4-.9,0-1.77.2-2.58.59-.8.38-1.52.9-2.13,1.54-.61.64-1.11,1.38-1.47,2.2-.37.83-.55,1.72-.55,2.63,0,.65.1,1.28.3,1.85.2.58.49,1.1.86,1.54.38.44.84.8,1.39,1.06.55.26,1.17.4,1.86.4.9,0,1.77-.2,2.59-.59.81-.39,1.53-.91,2.13-1.54.61-.64,1.1-1.38,1.46-2.2.37-.84.55-1.71.55-2.61,0-.65-.1-1.28-.3-1.86-.2-.59-.49-1.11-.87-1.55ZM175.74,135.82c-.29-.14-.54-.34-.75-.6-.22-.26-.38-.58-.5-.93-.12-.37-.18-.77-.18-1.2,0-.63.12-1.23.37-1.8.25-.57.58-1.09.99-1.52.4-.43.86-.78,1.36-1.03.49-.25.98-.37,1.48-.37.35,0,.67.07.95.22.29.15.54.35.76.61.22.26.38.58.5.94.12.38.18.78.18,1.21,0,.63-.12,1.23-.37,1.78-.25.57-.58,1.07-.98,1.5-.39.43-.85.77-1.36,1.02-.84.42-1.76.5-2.45.16Z"/>
    <path class="st0" d="M193.85,127.13c-.44-.55-1.14-.83-2.1-.83-.48,0-.97.07-1.45.2-.48.13-.94.32-1.39.57-.42.24-.82.51-1.2.83l.31-1.41h-2.16l-2.41,11.42h2.26l1.42-6.75c.2-.38.44-.74.73-1.07.3-.34.63-.64.99-.89.35-.25.72-.44,1.1-.58.36-.13.71-.2,1.04-.2.57,0,1.15.17,1.15,1.44,0,.46-.07,1.01-.19,1.63l-1.37,6.42h2.26l1.37-6.53c.08-.4.15-.77.2-1.11.05-.35.08-.7.08-1.02,0-.88-.21-1.59-.62-2.11Z"/>
  </g>
</svg>